<svg width="66" height="131"
    xmlns="http://www.w3.org/2000/svg">
    <g>
        <title>sig box</title>
        <path d="m63.78999,0l0,0.31l-3.07,0l0,-0.31l3.07,0zm-4.61,0l0,0.31l-3.07,0l0,-0.31l3.07,0zm-4.6,0l0,0.31l-3.07,0l0,-0.31l3.07,0zm-4.61,0l0,0.31l-3.07,0l0,-0.31l3.07,0zm-4.61,0l0,0.31l-3.07,0l0,-0.31l3.07,0zm-4.6,0l0,0.31l-3.07,0l0,-0.31l3.07,0zm-4.61,0l0,0.31l-3.07,0l0,-0.31l3.07,0zm-4.6,0l0,0.31l-3.07,0l0,-0.31l3.07,0zm-4.61,0l0,0.31l-3.07,0l0,-0.31l3.07,0zm-4.61,0l0,0.31l-3.07,0l0,-0.31l3.07,0zm-4.6,0l0,0.31l-3.07,0l0,-0.31l3.07,0zm-4.61,0l0,0.31l-3.07,0l0,-0.31l3.07,0zm-4.61,0l0,0.31l-3.07,0l0,-0.31l3.07,0zm-4.6,0l0,0.31l-3.07,0l0,-0.31l3.07,0zm-3.6,0.7l0,3.08l-0.31,0l0,-3.08l0.31,0zm0,4.62l0,3.08l-0.31,0l0,-3.08l0.31,0zm0,4.63l0,3.08l-0.31,0l0,-3.08l0.31,0zm0,4.62l0,3.08l-0.31,0l0,-3.08l0.31,0zm0,4.63l0,3.08l-0.31,0l0,-3.08l0.31,0zm0,4.62l0,3.08l-0.31,0l0,-3.08l0.31,0zm0,4.63l0,3.08l-0.31,0l0,-3.08l0.31,0zm0,4.62l0,3.08l-0.31,0l0,-3.08l0.31,0zm0,4.63l0,3.08l-0.31,0l0,-3.08l0.31,0zm0,4.62l0,3.08l-0.31,0l0,-3.08l0.31,0zm0,4.63l0,3.08l-0.31,0l0,-3.08l0.31,0zm0,4.62l0,3.08l-0.31,0l0,-3.08l0.31,0zm0,4.63l0,3.08l-0.31,0l0,-3.08l0.31,0zm0,4.62l0,3.08l-0.31,0l0,-3.08l0.31,0zm0,4.62l0,3.08l-0.31,0l0,-3.08l0.31,0zm0,4.63l0,3.08l-0.31,0l0,-3.08l0.31,0zm0,4.62l0,3.08l-0.31,0l0,-3.08l0.31,0zm0,4.63l0,3.08l-0.31,0l0,-3.08l0.31,0zm0,4.62l0,3.08l-0.31,0l0,-3.08l0.31,0zm0,4.63l0,3.08l-0.31,0l0,-3.08l0.31,0zm0,4.62l0,3.08l-0.31,0l0,-3.08l0.31,0zm0,4.63l0,3.08l-0.31,0l0,-3.08l0.31,0zm0,4.62l0,3.08l-0.31,0l0,-3.08l0.31,0zm0,4.63l0,3.08l-0.31,0l0,-3.08l0.31,0zm0,4.62l0,3.08l-0.31,0l0,-3.08l0.31,0zm0,4.63l0,3.08l-0.31,0l0,-3.08l0.31,0zm0,4.62l0,3.08l-0.31,0l0,-3.08l0.31,0zm0,4.63l0,3.08l-0.31,0l0,-3.08l0.31,0zm3.79,3.28l0,0.31l-3.07,0l0,-0.31l3.07,0zm4.6,0l0,0.31l-3.07,0l0,-0.31l3.07,0zm4.61,0l0,0.31l-3.07,0l0,-0.31l3.07,0zm4.6,0l0,0.31l-3.07,0l0,-0.31l3.07,0zm4.61,0l0,0.31l-3.07,0l0,-0.31l3.07,0zm4.61,0l0,0.31l-3.07,0l0,-0.31l3.07,0zm4.6,0l0,0.31l-3.07,0l0,-0.31l3.07,0zm4.61,0l0,0.31l-3.07,0l0,-0.31l3.07,0zm4.61,0l0,0.31l-3.07,0l0,-0.31l3.07,0zm4.6,0l0,0.31l-3.07,0l0,-0.31l3.07,0zm4.61,0l0,0.31l-3.07,0l0,-0.31l3.07,0zm4.6,0l0,0.31l-3.07,0l0,-0.31l3.07,0zm4.61,0l0,0.31l-3.07,0l0,-0.31l3.07,0zm4.61,0l0,0.31l-3.07,0l0,-0.31l3.07,0zm0.32,-3.99l0,3.08l-0.31,0l0,-3.08l0.31,0zm0,-4.62l0,3.08l-0.31,0l0,-3.08l0.31,0zm0,-4.63l0,3.08l-0.31,0l0,-3.08l0.31,0zm0,-4.62l0,3.08l-0.31,0l0,-3.08l0.31,0zm0,-4.63l0,3.08l-0.31,0l0,-3.08l0.31,0zm0,-4.62l0,3.08l-0.31,0l0,-3.08l0.31,0zm0,-4.63l0,3.08l-0.31,0l0,-3.08l0.31,0zm0,-4.62l0,3.08l-0.31,0l0,-3.08l0.31,0zm0,-4.62l0,3.08l-0.31,0l0,-3.08l0.31,0zm0,-4.63l0,3.08l-0.31,0l0,-3.08l0.31,0zm0,-4.62l0,3.08l-0.31,0l0,-3.08l0.31,0zm0,-4.63l0,3.08l-0.31,0l0,-3.08l0.31,0zm0,-4.62l0,3.08l-0.31,0l0,-3.08l0.31,0zm0,-4.63l0,3.08l-0.31,0l0,-3.08l0.31,0zm0,-4.62l0,3.08l-0.31,0l0,-3.08l0.31,0zm0,-4.63l0,3.08l-0.31,0l0,-3.08l0.31,0zm0,-4.62l0,3.08l-0.31,0l0,-3.08l0.31,0zm0,-4.63l0,3.08l-0.31,0l0,-3.08l0.31,0zm0,-4.62l0,3.08l-0.31,0l0,-3.08l0.31,0zm0,-4.63l0,3.08l-0.31,0l0,-3.08l0.31,0zm0,-4.62l0,3.08l-0.31,0l0,-3.08l0.31,0zm0,-4.63l0,3.08l-0.31,0l0,-3.08l0.31,0zm0,-4.62l0,3.08l-0.31,0l0,-3.08l0.31,0zm0,-4.63l0,3.08l-0.31,0l0,-3.08l0.31,0zm0,-4.62l0,3.08l-0.31,0l0,-3.08l0.31,0zm0,-4.62l0,3.08l-0.31,0l0,-3.08l0.31,0zm0,-4.63l0,3.08l-0.31,0l0,-3.08l0.31,0zm0,-4.62l0,3.08l-0.31,0l0,-3.08l0.31,0z" id="SVGID_00000108304757232216622590000011583486862274376855_"/>
    </g>
</svg>