<svg width="65" height="131"
    xmlns="http://www.w3.org/2000/svg">
    <style type="text/css">
    .stars{
        fill:#e3b7d7;
    }
    .bk{
        fill: none;
        stroke: #f3dbea;
        stroke-width: 4;
    }
    </style>
    <g>
        <title>Layer 1</title>
        <g id="back">
            <line  class="bk" x1="-3.22222" y1="3.16667" x2="62.5" y2="130.27778"/>
            <line  class="bk" x1="3.66667" y1="-1.05556" x2="69.38889" y2="126.05556"/>
            <path  class="bk" d="m9,-5.94444l66.61111,126.66667"/>
            <line  class="bk" x1="20.11111" y1="-3.05556" x2="85.83333" y2="124.05556"/>
            <line  class="bk" x1="24.55556" y1="-10.61111" x2="90.27778" y2="116.5"/>
            <line  class="bk" x1="32.11111" y1="-12.83333" x2="97.83333" y2="114.27778"/>
            <line  class="bk" x1="37.66667" y1="-18.16667" x2="103.38889" y2="108.94444"/>
            <line  class="bk" x1="46.77778" y1="-17.94444" x2="112.5" y2="109.16667"/>
            <line  class="bk" x1="50.77778" y1="-25.94444" x2="116.5" y2="101.16667"/>
            <line  class="bk" x1="-3.88889" y1="18.94444" x2="61.83333" y2="146.05556"/>
            <line  class="bk" x1="-13.88889" y1="16.05556" x2="51.83333" y2="143.16667"/>
            <line  class="bk" x1="-19.66667" y1="37.16667" x2="46.05556" y2="164.27778"/>
            <line  class="bk" x1="-23" y1="48.27778" x2="42.72222" y2="175.38889"/>
            <line  class="bk" x1="-29" y1="53.38889" x2="36.72222" y2="180.5"/>
            <line  class="bk" x1="-18.77778" y1="22.94445" x2="46.94444" y2="150.05556"/>
            <line  class="bk" x1="-34.77778" y1="58.5" x2="30.94444" y2="185.61111"/>
        </g>
        <g id="stars">
            <title>Layer 2</title>
            <path class="stars" d="m5.64443,28.96708c3.21736,-1.13483 5.05115,-2.44929 7.57673,-4.67906c2.07532,1.76169 5.02082,3.3728 7.67537,4.29445c-3.20095,1.17657 -5.71261,2.99265 -7.67537,4.87136c-2.70148,-2.40941 -4.45551,-3.35193 -7.57673,-4.48674l0,-0.00001z" stroke="null"/>
            <path class="stars" d="m21.60597,14.61797c2.31083,-0.72499 3.52264,-1.88401 5.28396,-3.59918c1.44731,1.35511 3.43442,2.66835 5.35274,3.30333c-2.71309,1.19348 -3.88778,2.20582 -5.35274,3.74709c-1.68282,-2.07523 -2.97313,-2.72626 -5.28396,-3.45125l0,0.00001z" stroke="null"/>
        </g>
    </g>

</svg>