<svg width="12" height="52"
    xmlns="http://www.w3.org/2000/svg">

    <g>
        <title>Layer 1</title>
        <rect id="svg_1" fill="#51BEDC" height="51.61" width="11.31" class="st3"
            xmlns="http://www.w3.org/2000/svg"/>
        <g id="svg_50">
            <g id="svg_2"
                xmlns="http://www.w3.org/2000/svg">
                <path id="svg_3" fill="#FFFFFF" d="m2.71,47.315l1.37,0c0.08,0 0.1,-0.07 0.1,-0.07l0.01,-0.04l0.23,0l0,0.6l-0.23,0l-0.01,-0.04c0,0 0,-0.02 -0.02,-0.04c-0.02,-0.02 -0.04,-0.03 -0.08,-0.03l-1.37,0c-0.08,0 -0.1,0.07 -0.1,0.07l-0.01,0.04l-0.23,0l0,-0.6l0.23,0l0.01,0.04c0,0 0,0.02 0.02,0.04c0.01,0.02 0.04,0.03 0.08,0.03zm1.36,0.06l-1.37,0c-0.07,0 -0.11,-0.03 -0.14,-0.06c-0.01,-0.02 -0.02,-0.04 -0.03,-0.05l-0.1,0l0,0.46l0.1,0c0.02,-0.06 0.08,-0.11 0.16,-0.11l1.37,0c0.07,0 0.11,0.03 0.14,0.06c0.01,0.02 0.02,0.04 0.03,0.05l0.1,0l0,-0.46l-0.1,0c-0.01,0.06 -0.06,0.11 -0.16,0.11zm-1.36,0.02l1.37,0c0.1,0 0.16,-0.06 0.18,-0.11l0.06,0l0,0.42l-0.06,0c-0.01,-0.01 -0.01,-0.03 -0.02,-0.04c-0.02,-0.03 -0.07,-0.07 -0.15,-0.07l-1.37,0c-0.1,0 -0.16,0.06 -0.18,0.11l-0.06,0l0,-0.42l0.06,0c0.01,0.01 0.01,0.03 0.02,0.04c0.02,0.04 0.06,0.07 0.15,0.07z" class="st4"/>
                <path id="svg_4" fill="#FFFFFF" d="m4.18,45.825l0.23,0l0,0.55l-0.23,0c0,0 -0.01,-0.03 -0.02,-0.04c-0.02,-0.02 -0.04,-0.03 -0.08,-0.03l-0.72,0l0,0.26l0.72,0c0.03,0 0.06,-0.01 0.08,-0.03c0.01,-0.02 0.02,-0.04 0.02,-0.04l0.23,0l0,0.55l-0.23,0l-0.01,-0.04c0,0 -0.01,-0.02 -0.02,-0.04c-0.02,-0.02 -0.04,-0.03 -0.08,-0.03l-0.73,0c-0.03,0 -0.06,0.01 -0.08,0.03c-0.01,0.02 -0.02,0.03 -0.02,0.04l-0.01,0.04l-0.04,0l-0.18,0l0,-0.95l0.27,-0.15l0.78,0c0.08,0 0.09,-0.07 0.09,-0.07l0.03,-0.05zm0.06,0.07c-0.02,0.06 -0.07,0.11 -0.16,0.11l-0.76,0l-0.22,0.12l0,0.84l0.09,0c0.01,-0.01 0.01,-0.03 0.03,-0.05c0.02,-0.03 0.06,-0.06 0.13,-0.06l0.73,0c0.07,0 0.11,0.03 0.13,0.06c0.01,0.02 0.02,0.04 0.02,0.05l0.1,0l0,-0.41l-0.11,0c0,0 -0.01,0.01 -0.01,0.02c-0.02,0.03 -0.06,0.06 -0.13,0.06l-0.79,0l0,-0.4l0.79,0c0.07,0 0.11,0.03 0.13,0.06c0,0.01 0.01,0.01 0.01,0.02l0.11,0l0,-0.41l-0.09,0l0,-0.01zm0.02,0.02l0.06,0l0,0.37l-0.08,0c0,0 0,-0.01 -0.01,-0.01c-0.02,-0.03 -0.07,-0.07 -0.15,-0.07l-0.79,0c-0.01,0 -0.02,0.01 -0.02,0.02l0,0.4c0,0.01 0.01,0.02 0.02,0.02l0.79,0c0.08,0 0.12,-0.04 0.15,-0.07c0,0 0.01,0 0.01,-0.01l0.08,0l0,0.37l-0.06,0c0,-0.01 -0.01,-0.03 -0.02,-0.04c-0.02,-0.03 -0.07,-0.07 -0.15,-0.07l-0.73,0c-0.08,0 -0.12,0.04 -0.15,0.07c-0.01,0.02 -0.02,0.03 -0.03,0.04l-0.06,0l0,-0.81l0.2,-0.11l0.76,0c0.1,0.01 0.15,-0.05 0.18,-0.1z" class="st4"/>
                <path id="svg_5" fill="#FFFFFF" d="m4.18,44.515l0.23,0l0,0.95l-0.27,0.15l-0.84,0l-0.27,-0.15l0,-0.47l-0.29,0c-0.03,0 -0.06,0.01 -0.07,0.03c-0.01,0.02 -0.02,0.04 -0.02,0.04l-0.01,0.04l-0.23,0l0,-0.58l0.23,0l0.01,0.04c0,0 0,0.02 0.02,0.04c0.02,0.02 0.04,0.03 0.07,0.03l1.34,0c0.03,0 0.06,-0.01 0.08,-0.03c0.01,-0.02 0.02,-0.03 0.02,-0.04l0,-0.05zm0.06,0.07c0,0.01 -0.01,0.03 -0.02,0.05c-0.02,0.03 -0.06,0.06 -0.13,0.06l-1.34,0c-0.07,0 -0.11,-0.03 -0.13,-0.06c-0.01,-0.02 -0.02,-0.04 -0.03,-0.05l-0.1,0l0,0.44l0.1,0c0,-0.01 0.01,-0.03 0.03,-0.05c0.02,-0.03 0.06,-0.06 0.13,-0.06l0.36,0l0,0.5l0.22,0.12l0.8,0l0.22,-0.12l0,-0.84l-0.11,0.01zm-0.01,0.06c0.01,-0.01 0.02,-0.03 0.02,-0.04l0.06,0l0,0.81l-0.2,0.11l-0.79,0l-0.2,-0.11l0,-0.49c0,-0.01 -0.01,-0.02 -0.02,-0.02l-0.36,0c-0.08,0 -0.12,0.04 -0.15,0.07c-0.01,0.01 -0.02,0.03 -0.02,0.04l-0.06,0l0,-0.4l0.06,0c0.01,0.01 0.01,0.03 0.02,0.04c0.02,0.03 0.07,0.07 0.15,0.07l1.34,0c0.08,-0.01 0.13,-0.05 0.15,-0.08zm-0.94,0.25c-0.01,0 -0.02,0.01 -0.02,0.02l0,0.4c0,0.01 0.01,0.02 0.02,0.02l0.85,0c0.01,0 0.02,-0.01 0.02,-0.02l0,-0.4c0,-0.01 -0.01,-0.02 -0.02,-0.02l-0.85,0zm0,0.42l0,-0.4l0.85,0l0,0.4l-0.85,0zm0.78,-0.07l0,-0.26l-0.71,0l0,0.26l0.71,0z" class="st4"/>
                <path id="svg_6" fill="#FFFFFF" d="m3.87,43.935l0.21,0l0,-0.26l-0.1,0l0,-0.36l0.16,0l0.01,0.01l0.26,0.14l0,0.69l-0.27,0.15l-0.84,0l-0.01,-0.01l-0.26,-0.14l0,-0.69l0.27,-0.15l0.29,0l0.01,0.01l0.26,0.14l0,0.47l0.01,0zm0.27,0.07l-0.35,0l0,-0.5l-0.22,-0.12l-0.26,0l-0.22,0.12l0,0.61l0.22,0.12l0.8,0l0.22,-0.12l0,-0.61l-0.22,-0.12l-0.07,0l0,0.23l0.1,0l0,0.39zm-0.35,0.02l0.35,0c0.01,0 0.02,-0.01 0.02,-0.02l0,-0.4c0,-0.01 -0.01,-0.02 -0.02,-0.02l-0.08,0l0,-0.19l0.04,0l0.2,0.11l0,0.59l-0.2,0.11l-0.79,0l-0.2,-0.11l0,-0.59l0.2,-0.11l0.24,0l0.2,0.11l0,0.49c0.02,0.02 0.03,0.03 0.04,0.03zm-0.15,0c0.01,0 0.02,-0.01 0.02,-0.02l0,-0.4c0,-0.01 -0.01,-0.02 -0.02,-0.02l-0.35,0c-0.01,0 -0.02,0.01 -0.02,0.02l0,0.4c0,0.01 0.01,0.02 0.02,0.02l0.35,0zm0,-0.42l0,0.4l-0.35,0l0,-0.4l0.35,0zm-0.28,0.07l0,0.26l0.21,0l0,-0.26l-0.21,0z" class="st4"/>
                <path id="svg_7" fill="#FFFFFF" d="m3.3,41.995l0.84,0l0.01,0.01l0.26,0.14l0,0.47l0.29,0c0.03,0 0.06,-0.01 0.07,-0.03c0.01,-0.02 0.02,-0.04 0.02,-0.04l0.01,-0.04l0.23,0l0,0.58l-0.23,0l-0.01,-0.04c0,0 0,-0.02 -0.02,-0.04c-0.02,-0.02 -0.04,-0.03 -0.07,-0.03l-1.34,0c-0.03,0 -0.06,0.01 -0.08,0.03c-0.01,0.02 -0.02,0.04 -0.02,0.04l-0.01,0.04l-0.23,0l0,-0.95l0.28,-0.14zm0.02,0.07l-0.22,0.12l0,0.84l0.09,0c0.01,-0.01 0.01,-0.03 0.03,-0.05c0.02,-0.03 0.06,-0.06 0.13,-0.06l1.34,0c0.07,0 0.11,0.03 0.13,0.06c0.01,0.02 0.02,0.04 0.02,0.05l0.1,0l0,-0.45l-0.09,0c-0.01,0.01 -0.01,0.03 -0.03,0.05c-0.02,0.03 -0.06,0.06 -0.13,0.06l-0.36,0l0,-0.5l-0.22,-0.12l-0.79,0zm-0.2,0.13l0.2,-0.11l0.79,0l0.2,0.11l0,0.49c0,0.01 0.01,0.02 0.02,0.02l0.36,0c0.08,0 0.12,-0.04 0.15,-0.07c0.01,-0.02 0.02,-0.03 0.02,-0.04l0.06,0l0,0.41l-0.06,0c-0.01,-0.01 -0.01,-0.03 -0.02,-0.04c-0.02,-0.03 -0.07,-0.07 -0.15,-0.07l-1.34,0c-0.08,0 -0.12,0.03 -0.15,0.07c-0.01,0.01 -0.02,0.03 -0.03,0.04l-0.06,0l0,-0.81l0.01,0zm0.17,0.08c-0.01,0 -0.02,0.01 -0.02,0.02l0,0.4c0,0.01 0.01,0.02 0.02,0.02l0.85,0c0.01,0 0.02,-0.01 0.02,-0.02l0,-0.4c0,-0.01 -0.01,-0.02 -0.02,-0.02l-0.85,0zm0,0.41l0,-0.4l0.85,0l0,0.4l-0.85,0zm0.78,-0.06l0,-0.26l-0.71,0l0,0.26l0.71,0z" class="st4"/>
                <path id="svg_8" fill="#FFFFFF" d="m3.87,41.365l0.21,0l0,-0.26l-0.1,0l0,-0.36l0.16,0l0.01,0.01l0.26,0.14l0,0.69l-0.27,0.15l-0.84,0l-0.01,-0.01l-0.26,-0.14l0,-0.69l0.27,-0.15l0.29,0l0.01,0.01l0.26,0.14l0,0.47l0.01,0zm0.27,0.07l-0.35,0l0,-0.5l-0.22,-0.12l-0.26,0l-0.22,0.12l0,0.61l0.22,0.12l0.8,0l0.22,-0.12l0,-0.61l-0.22,-0.12l-0.07,0l0,0.23l0.1,0l0,0.39zm-0.35,0.02l0.35,0c0.01,0 0.02,-0.01 0.02,-0.02l0,-0.4c0,-0.01 -0.01,-0.02 -0.02,-0.02l-0.08,0l0,-0.19l0.04,0l0.2,0.11l0,0.59l-0.2,0.11l-0.79,0l-0.2,-0.11l0,-0.59l0.2,-0.11l0.24,0l0.2,0.11l0,0.49c0.02,0.02 0.03,0.03 0.04,0.03zm-0.15,0c0.01,0 0.02,-0.01 0.02,-0.02l0,-0.4c0,-0.01 -0.01,-0.02 -0.02,-0.02l-0.35,0c-0.01,0 -0.02,0.01 -0.02,0.02l0,0.4c0,0.01 0.01,0.02 0.02,0.02l0.35,0zm0,-0.42l0,0.4l-0.35,0l0,-0.4l0.35,0zm-0.28,0.07l0,0.26l0.21,0l0,-0.26l-0.21,0z" class="st4"/>
                <path id="svg_9" fill="#FFFFFF" d="m4.18,39.315l0.23,0l0,0.55l-0.23,0c0,0 -0.01,-0.03 -0.02,-0.04c-0.02,-0.02 -0.04,-0.03 -0.08,-0.03l-0.72,0l0,0.26l0.72,0c0.03,0 0.06,-0.01 0.08,-0.03c0.01,-0.02 0.02,-0.04 0.02,-0.04l0.23,0l0,0.55l-0.23,0l-0.01,-0.04c0,0 -0.01,-0.02 -0.02,-0.04c-0.02,-0.02 -0.04,-0.03 -0.08,-0.03l-0.73,0c-0.03,0 -0.06,0.01 -0.08,0.03c-0.01,0.02 -0.02,0.03 -0.02,0.04l-0.01,0.04l-0.04,0l-0.18,0l0,-0.95l0.27,-0.15l0.78,0c0.08,0 0.09,-0.07 0.09,-0.07l0.03,-0.05zm0.06,0.07c-0.02,0.06 -0.07,0.11 -0.16,0.11l-0.76,0l-0.22,0.12l0,0.84l0.09,0c0.01,-0.01 0.01,-0.03 0.03,-0.05c0.02,-0.03 0.06,-0.06 0.13,-0.06l0.73,0c0.07,0 0.11,0.03 0.13,0.06c0.01,0.02 0.02,0.04 0.02,0.05l0.1,0l0,-0.41l-0.11,0c0,0 -0.01,0.01 -0.01,0.02c-0.02,0.03 -0.06,0.06 -0.13,0.06l-0.79,0l0,-0.4l0.79,0c0.07,0 0.11,0.03 0.13,0.06c0,0.01 0.01,0.01 0.01,0.02l0.11,0l0,-0.41l-0.09,0l0,-0.01zm0.02,0.02l0.06,0l0,0.37l-0.08,0c0,0 0,-0.01 -0.01,-0.01c-0.02,-0.03 -0.07,-0.07 -0.15,-0.07l-0.79,0c-0.01,0 -0.02,0.01 -0.02,0.02l0,0.4c0,0.01 0.01,0.02 0.02,0.02l0.79,0c0.08,0 0.12,-0.04 0.15,-0.07c0,0 0.01,0 0.01,-0.01l0.08,0l0,0.37l-0.06,0c0,-0.01 -0.01,-0.03 -0.02,-0.04c-0.02,-0.03 -0.07,-0.07 -0.15,-0.07l-0.73,0c-0.08,0 -0.12,0.04 -0.15,0.07c-0.01,0.02 -0.02,0.03 -0.03,0.04l-0.06,0l0,-0.81l0.2,-0.11l0.76,0c0.1,0.01 0.15,-0.04 0.18,-0.1z" class="st4"/>
                <path id="svg_10" fill="#FFFFFF" d="m4.18,38.005l0.23,0l0,0.95l-0.27,0.15l-0.84,0l-0.27,-0.15l0,-0.47l-0.29,0c-0.03,0 -0.06,0.01 -0.07,0.03c-0.01,0.02 -0.02,0.04 -0.02,0.04l-0.01,0.04l-0.23,0l0,-0.58l0.23,0l0.01,0.04c0,0 0,0.02 0.02,0.04c0.02,0.02 0.04,0.03 0.07,0.03l1.34,0c0.03,0 0.06,-0.01 0.08,-0.03c0.01,-0.02 0.02,-0.03 0.02,-0.04l0,-0.05zm0.06,0.07c0,0.01 -0.01,0.03 -0.02,0.05c-0.02,0.03 -0.06,0.06 -0.13,0.06l-1.34,0c-0.07,0 -0.11,-0.03 -0.13,-0.06c-0.01,-0.02 -0.02,-0.04 -0.03,-0.05l-0.1,0l0,0.44l0.1,0c0,-0.01 0.01,-0.03 0.03,-0.05c0.02,-0.03 0.06,-0.06 0.13,-0.06l0.36,0l0,0.5l0.22,0.12l0.8,0l0.22,-0.12l0,-0.84l-0.11,0.01zm-0.01,0.06c0.01,-0.01 0.02,-0.03 0.02,-0.04l0.06,0l0,0.81l-0.2,0.11l-0.79,0l-0.2,-0.11l0,-0.49c0,-0.01 -0.01,-0.02 -0.02,-0.02l-0.36,0c-0.08,0 -0.12,0.04 -0.15,0.07c-0.01,0.01 -0.02,0.03 -0.02,0.04l-0.06,0l0,-0.4l0.06,0c0.01,0.01 0.01,0.03 0.02,0.04c0.02,0.03 0.07,0.07 0.15,0.07l1.34,0c0.08,-0.01 0.13,-0.05 0.15,-0.08zm-0.94,0.26c-0.01,0 -0.02,0.01 -0.02,0.02l0,0.4c0,0.01 0.01,0.02 0.02,0.02l0.85,0c0.01,0 0.02,-0.01 0.02,-0.02l0,-0.4c0,-0.01 -0.01,-0.02 -0.02,-0.02l-0.85,0zm0,0.41l0,-0.4l0.85,0l0,0.4l-0.85,0zm0.78,-0.06l0,-0.26l-0.71,0l0,0.26l0.71,0z" class="st4"/>
                <path id="svg_11" fill="#FFFFFF" d="m3.87,37.425l0.21,0l0,-0.26l-0.1,0l0,-0.36l0.16,0l0.01,0.01l0.26,0.14l0,0.69l-0.27,0.15l-0.84,0l-0.01,-0.01l-0.26,-0.14l0,-0.69l0.27,-0.15l0.29,0l0.01,0.01l0.26,0.14l0,0.47l0.01,0zm0.27,0.07l-0.35,0l0,-0.5l-0.22,-0.12l-0.26,0l-0.22,0.12l0,0.61l0.22,0.12l0.8,0l0.22,-0.12l0,-0.61l-0.22,-0.12l-0.07,0l0,0.23l0.1,0l0,0.39zm-0.35,0.02l0.35,0c0.01,0 0.02,-0.01 0.02,-0.02l0,-0.4c0,-0.01 -0.01,-0.02 -0.02,-0.02l-0.08,0l0,-0.19l0.04,0l0.2,0.11l0,0.59l-0.2,0.11l-0.79,0l-0.2,-0.11l0,-0.59l0.2,-0.11l0.24,0l0.2,0.11l0,0.49c0.02,0.02 0.03,0.03 0.04,0.03zm-0.15,0c0.01,0 0.02,-0.01 0.02,-0.02l0,-0.4c0,-0.01 -0.01,-0.02 -0.02,-0.02l-0.35,0c-0.01,0 -0.02,0.01 -0.02,0.02l0,0.4c0,0.01 0.01,0.02 0.02,0.02l0.35,0zm0,-0.42l0,0.4l-0.35,0l0,-0.4l0.35,0zm-0.28,0.07l0,0.26l0.21,0l0,-0.26l-0.21,0z" class="st4"/>
                <path id="svg_12" fill="#FFFFFF" d="m4.18,35.375l0.23,0l0,0.55l-0.23,0c0,0 -0.01,-0.03 -0.02,-0.04c-0.02,-0.02 -0.04,-0.03 -0.08,-0.03l-0.72,0l0,0.26l0.72,0c0.03,0 0.06,-0.01 0.08,-0.03c0.01,-0.02 0.02,-0.04 0.02,-0.04l0.23,0l0,0.55l-0.23,0l-0.01,-0.04c0,0 -0.01,-0.02 -0.02,-0.04c-0.02,-0.02 -0.04,-0.03 -0.08,-0.03l-0.73,0c-0.03,0 -0.06,0.01 -0.08,0.03c-0.01,0.02 -0.02,0.03 -0.02,0.04l-0.01,0.04l-0.04,0l-0.18,0l0,-0.95l0.27,-0.15l0.78,0c0.08,0 0.09,-0.07 0.09,-0.07l0.03,-0.05zm0.06,0.07c-0.02,0.06 -0.07,0.11 -0.16,0.11l-0.76,0l-0.22,0.12l0,0.84l0.09,0c0.01,-0.01 0.01,-0.03 0.03,-0.05c0.02,-0.03 0.06,-0.06 0.13,-0.06l0.73,0c0.07,0 0.11,0.03 0.13,0.06c0.01,0.02 0.02,0.04 0.02,0.05l0.1,0l0,-0.41l-0.11,0c0,0 -0.01,0.01 -0.01,0.02c-0.02,0.03 -0.06,0.06 -0.13,0.06l-0.79,0l0,-0.4l0.79,0c0.07,0 0.11,0.03 0.13,0.06c0,0.01 0.01,0.01 0.01,0.02l0.11,0l0,-0.41l-0.09,0l0,-0.01zm0.02,0.02l0.06,0l0,0.37l-0.08,0c0,0 0,-0.01 -0.01,-0.01c-0.02,-0.03 -0.07,-0.07 -0.15,-0.07l-0.79,0c-0.01,0 -0.02,0.01 -0.02,0.02l0,0.4c0,0.01 0.01,0.02 0.02,0.02l0.79,0c0.08,0 0.12,-0.04 0.15,-0.07c0,0 0.01,0 0.01,-0.01l0.08,0l0,0.37l-0.06,0c0,-0.01 -0.01,-0.03 -0.02,-0.04c-0.02,-0.03 -0.07,-0.07 -0.15,-0.07l-0.73,0c-0.08,0 -0.12,0.04 -0.15,0.07c-0.01,0.02 -0.02,0.03 -0.03,0.04l-0.06,0l0,-0.81l0.2,-0.11l0.76,0c0.1,0.01 0.15,-0.04 0.18,-0.1z" class="st4"/>
                <path id="svg_13" fill="#FFFFFF" d="m3.36,34.425l0,0.23l0.71,0l0,-0.23l0.34,0l0,0.45l-0.27,0.15l-0.77,0l0,0.14l-0.33,0l0,-0.14l-0.42,0l-0.23,-0.36l0.65,0l0,-0.23l0.32,0l0,-0.01zm-0.26,0.07l0,0.23l-0.6,0l0.14,0.23l0.46,0l0,0.14l0.19,0l0,-0.14l0.83,0l0.22,-0.12l0,-0.34l-0.19,0l0,0.23l-0.85,0l0,-0.23l-0.2,0zm0.02,0.23l0,-0.21l0.15,0l0,0.21c0,0 0,0.01 0.01,0.01c0,0 0.01,0.01 0.01,0.01l0.85,0c0.01,0 0.02,-0.01 0.02,-0.02l0,-0.21l0.15,0l0,0.31l-0.2,0.11l-0.82,0c-0.01,0 -0.02,0.01 -0.02,0.02l0,0.12l-0.15,0l0,-0.12c0,-0.01 -0.01,-0.02 -0.02,-0.02l-0.44,0l-0.12,-0.19l0.56,0c0.01,0 0.02,-0.01 0.02,-0.02z" class="st4"/>
                <path id="svg_14" fill="#FFFFFF" d="m2.99,32.715l-0.28,0l0,0.27l0.44,0l0,-0.46l0.34,0l0,0.46l0.58,0c0.04,0 0.06,-0.01 0.08,-0.03c0.01,-0.02 0.02,-0.04 0.02,-0.04l0.01,-0.04l0.23,0l0,0.59l-0.23,0l-0.01,-0.04c0,0 0,-0.02 -0.02,-0.04c-0.02,-0.02 -0.04,-0.03 -0.08,-0.03l-1.37,0c-0.04,0 -0.06,0.01 -0.08,0.03c-0.01,0.02 -0.02,0.04 -0.02,0.04l0,0.04l-0.23,0l0,-1.12l0.62,0l0,0.37zm-0.35,-0.07l0.28,0l0,-0.23l-0.48,0l0,0.98l0.1,0c0.01,-0.01 0.01,-0.03 0.03,-0.05c0.02,-0.03 0.06,-0.06 0.14,-0.06l1.37,0c0.07,0 0.11,0.03 0.14,0.06c0.01,0.02 0.02,0.04 0.03,0.05l0.1,0l0,-0.46l-0.1,0c0,0.01 -0.01,0.03 -0.03,0.05c-0.02,0.03 -0.06,0.06 -0.14,0.06l-0.65,0l0,-0.46l-0.2,0l0,0.46l-0.58,0l0,-0.4l-0.01,0zm-0.02,0l0,0.4c0,0.01 0.01,0.02 0.02,0.02l0.58,0c0.01,0 0.02,-0.01 0.02,-0.02l0,-0.44l0.15,0l0,0.44c0,0.01 0.01,0.02 0.02,0.02l0.65,0c0.08,0 0.13,-0.04 0.15,-0.07c0.01,-0.01 0.02,-0.03 0.02,-0.04l0.06,0l0,0.42l-0.06,0c-0.01,-0.01 -0.01,-0.03 -0.02,-0.04c-0.02,-0.03 -0.07,-0.07 -0.15,-0.07l-1.37,0c-0.08,0 -0.13,0.04 -0.15,0.07c-0.01,0.02 -0.02,0.03 -0.02,0.04l-0.06,0l0,-0.94l0.44,0l0,0.19l-0.26,0c-0.01,0 -0.02,0.01 -0.02,0.02z" class="st4"/>
                <path id="svg_15" fill="#FFFFFF" d="m3.87,31.715l0.21,0l0,-0.26l-0.1,0l0,-0.36l0.16,0l0.01,0.01l0.26,0.14l0,0.69l-0.27,0.15l-0.84,0l-0.01,-0.01l-0.26,-0.14l0,-0.69l0.27,-0.15l0.29,0l0.01,0.01l0.26,0.14l0,0.47l0.01,0zm0.27,0.07l-0.35,0l0,-0.5l-0.22,-0.12l-0.26,0l-0.22,0.12l0,0.61l0.22,0.12l0.8,0l0.22,-0.12l0,-0.61l-0.22,-0.12l-0.07,0l0,0.23l0.1,0l0,0.39zm-0.35,0.02l0.35,0c0.01,0 0.02,-0.01 0.02,-0.02l0,-0.4c0,-0.01 -0.01,-0.02 -0.02,-0.02l-0.08,0l0,-0.19l0.04,0l0.2,0.11l0,0.59l-0.2,0.11l-0.79,0l-0.2,-0.11l0,-0.59l0.2,-0.11l0.24,0l0.2,0.11l0,0.49c0.02,0.02 0.03,0.03 0.04,0.03zm-0.15,0c0.01,0 0.02,-0.01 0.02,-0.02l0,-0.4c0,-0.01 -0.01,-0.02 -0.02,-0.02l-0.35,0c-0.01,0 -0.02,0.01 -0.02,0.02l0,0.4c0,0.01 0.01,0.02 0.02,0.02l0.35,0zm0,-0.42l0,0.4l-0.35,0l0,-0.4l0.35,0zm-0.28,0.07l0,0.26l0.21,0l0,-0.26l-0.21,0z" class="st4"/>
                <path id="svg_16" fill="#FFFFFF" d="m4.18,29.725l0.23,0l0,0.95l-0.27,0.15l-0.84,0l-0.27,-0.15l0,-0.47l-0.29,0c-0.03,0 -0.06,0.01 -0.07,0.03c-0.01,0.02 -0.02,0.04 -0.02,0.04l-0.01,0.04l-0.23,0l0,-0.58l0.23,0l0.01,0.04c0,0 0,0.02 0.02,0.04c0.02,0.02 0.04,0.03 0.07,0.03l1.34,0c0.03,0 0.06,-0.01 0.08,-0.03c0.01,-0.02 0.02,-0.03 0.02,-0.04l0,-0.05zm0.06,0.07c0,0.01 -0.01,0.03 -0.02,0.05c-0.02,0.03 -0.06,0.06 -0.13,0.06l-1.34,0c-0.07,0 -0.11,-0.03 -0.13,-0.06c-0.01,-0.02 -0.02,-0.04 -0.03,-0.05l-0.1,0l0,0.44l0.1,0c0,-0.01 0.01,-0.03 0.03,-0.05c0.02,-0.03 0.06,-0.06 0.13,-0.06l0.36,0l0,0.5l0.22,0.12l0.8,0l0.22,-0.12l0,-0.84l-0.11,0.01zm-0.01,0.07c0.01,-0.01 0.02,-0.03 0.02,-0.04l0.06,0l0,0.81l-0.2,0.11l-0.79,0l-0.2,-0.11l0,-0.49c0,-0.01 -0.01,-0.02 -0.02,-0.02l-0.36,0c-0.08,0 -0.12,0.04 -0.15,0.07c-0.01,0.01 -0.02,0.03 -0.02,0.04l-0.06,0l0,-0.4l0.06,0c0.01,0.01 0.01,0.03 0.02,0.04c0.02,0.03 0.07,0.07 0.15,0.07l1.34,0c0.08,-0.02 0.13,-0.05 0.15,-0.08zm-0.94,0.25c-0.01,0 -0.02,0.01 -0.02,0.02l0,0.4c0,0.01 0.01,0.02 0.02,0.02l0.85,0c0.01,0 0.02,-0.01 0.02,-0.02l0,-0.4c0,-0.01 -0.01,-0.02 -0.02,-0.02l-0.85,0zm0,0.42l0,-0.4l0.85,0l0,0.4l-0.85,0zm0.78,-0.07l0,-0.26l-0.71,0l0,0.26l0.71,0z" class="st4"/>
                <path id="svg_17" fill="#FFFFFF" d="m3.87,29.145l0.21,0l0,-0.26l-0.1,0l0,-0.36l0.16,0l0.01,0.01l0.26,0.14l0,0.69l-0.27,0.15l-0.84,0l-0.01,-0.01l-0.26,-0.14l0,-0.69l0.27,-0.15l0.29,0l0.01,0.01l0.26,0.14l0,0.47l0.01,0zm0.27,0.07l-0.35,0l0,-0.5l-0.22,-0.12l-0.26,0l-0.22,0.12l0,0.61l0.22,0.12l0.8,0l0.22,-0.12l0,-0.61l-0.22,-0.12l-0.07,0l0,0.23l0.1,0l0,0.39zm-0.35,0.02l0.35,0c0.01,0 0.02,-0.01 0.02,-0.02l0,-0.4c0,-0.01 -0.01,-0.02 -0.02,-0.02l-0.08,0l0,-0.19l0.04,0l0.2,0.11l0,0.59l-0.2,0.11l-0.79,0l-0.2,-0.11l0,-0.59l0.2,-0.11l0.24,0l0.2,0.11l0,0.49c0.02,0.02 0.03,0.03 0.04,0.03zm-0.15,0c0.01,0 0.02,-0.01 0.02,-0.02l0,-0.4c0,-0.01 -0.01,-0.02 -0.02,-0.02l-0.35,0c-0.01,0 -0.02,0.01 -0.02,0.02l0,0.4c0,0.01 0.01,0.02 0.02,0.02l0.35,0zm0,-0.41l0,0.4l-0.35,0l0,-0.4l0.35,0zm-0.28,0.06l0,0.26l0.21,0l0,-0.26l-0.21,0z" class="st4"/>
                <path id="svg_18" fill="#FFFFFF" d="m3.52,27.735l-0.15,0l0,0.1l0.72,0c0.03,0 0.06,-0.01 0.08,-0.03c0.01,-0.02 0.02,-0.03 0.02,-0.04l0.01,-0.04l0.23,0l0,0.58l-0.23,0l-0.01,-0.04c0,0 -0.01,-0.02 -0.02,-0.04c-0.02,-0.02 -0.04,-0.03 -0.08,-0.03l-0.73,0c-0.03,0 -0.06,0.01 -0.08,0.03c-0.01,0.02 -0.02,0.04 -0.02,0.04l-0.01,0.04l-0.23,0l0,-0.86l0.49,0l0,0.29l0.01,0zm-0.23,-0.07l0.15,0l0,-0.16l-0.34,0l0,0.73l0.09,0c0.01,-0.01 0.01,-0.03 0.03,-0.05c0.02,-0.03 0.06,-0.06 0.13,-0.06l0.73,0c0.07,0 0.11,0.03 0.13,0.06c0.01,0.02 0.02,0.04 0.02,0.05l0.1,0l0,-0.44l-0.1,0c0,0.01 -0.01,0.03 -0.02,0.05c-0.02,0.03 -0.06,0.06 -0.13,0.06l-0.79,0l0,-0.24zm-0.02,0l0,0.24c0,0.01 0.01,0.02 0.02,0.02l0.79,0c0.08,0 0.12,-0.04 0.15,-0.07c0.01,-0.01 0.02,-0.03 0.02,-0.04l0.06,0l0,0.4l-0.06,0c0,-0.01 -0.01,-0.03 -0.02,-0.04c-0.02,-0.03 -0.07,-0.07 -0.15,-0.07l-0.73,0c-0.08,0 -0.12,0.04 -0.15,0.07c-0.01,0.01 -0.02,0.03 -0.03,0.04l-0.06,0l0,-0.69l0.3,0l0,0.12l-0.13,0c0,0 -0.01,0.01 -0.01,0.02z" class="st4"/>
                <path id="svg_19" fill="#FFFFFF" d="m4.18,26.075l0.23,0l0,0.95l-0.27,0.15l-0.35,0l-0.01,-0.01l-0.26,-0.14l0,-0.47l-0.16,0l0,0.26l0.06,0l0,0.36l-0.12,0l-0.01,-0.01l-0.26,-0.14l0,-0.69l0.27,-0.15l0.78,0c0.08,0 0.09,-0.07 0.09,-0.07l0.01,-0.04zm0.06,0.07c-0.02,0.05 -0.07,0.11 -0.16,0.11l-0.76,0l-0.22,0.12l0,0.61l0.22,0.12l0.04,0l0,-0.23l-0.06,0l0,-0.4l0.3,0l0,0.5l0.22,0.12l0.31,0l0.22,-0.12l0,-0.84l-0.11,0l0,0.01zm0.02,0.02l0.06,0l0,0.81l-0.2,0.11l-0.3,0l-0.2,-0.11l0,-0.49c0,-0.01 -0.01,-0.02 -0.02,-0.02l-0.3,0c0,0 -0.01,0 -0.01,0.01c0,0 -0.01,0.01 -0.01,0.01l0,0.4c0,0.01 0.01,0.02 0.02,0.02l0.04,0l0,0.19l-0.01,0l-0.2,-0.11l0,-0.59l0.2,-0.11l0.76,0c0.09,-0.01 0.14,-0.07 0.17,-0.12zm-0.48,0.29c-0.01,0 -0.02,0.01 -0.02,0.02l0,0.4c0,0.01 0.01,0.02 0.02,0.02l0.36,0c0.01,0 0.02,-0.01 0.02,-0.02l0,-0.4c0,-0.01 -0.01,-0.02 -0.02,-0.02l-0.36,0zm0,0.42l0,-0.4l0.36,0l0,0.4l-0.36,0zm0.29,-0.07l0,-0.26l-0.22,0l0,0.26l0.22,0z" class="st4"/>
                <path id="svg_20" fill="#FFFFFF" d="m4.07,25.265l0.34,0l0,0.38l-0.27,0.15l-1.39,0c-0.03,0 -0.06,0.01 -0.07,0.03c-0.01,0.02 -0.02,0.04 -0.02,0.04l-0.01,0.04l-0.23,0l0,-0.58l0.23,0l0.01,0.04c0,0 0,0.02 0.02,0.04c0.02,0.02 0.04,0.03 0.07,0.03l1.33,0l0,-0.17l-0.01,0zm0.07,0.07l0,0.17l-1.4,0c-0.07,0 -0.11,-0.03 -0.13,-0.06c-0.01,-0.02 -0.02,-0.04 -0.03,-0.05l-0.1,0l0,0.45l0.1,0c0,-0.01 0.01,-0.03 0.03,-0.05c0.02,-0.03 0.06,-0.06 0.13,-0.06l1.37,0l0.22,-0.12l0,-0.27l-0.19,0l0,-0.01zm0.03,0.17l0,-0.15l0.15,0l0,0.24l-0.2,0.11l-1.37,0c-0.08,0 -0.12,0.04 -0.15,0.07c-0.01,0.02 -0.02,0.03 -0.02,0.04l-0.06,0l0,-0.41l0.06,0c0.01,0.01 0.01,0.03 0.02,0.04c0.02,0.03 0.07,0.07 0.15,0.07l1.4,0c0.01,0.01 0.02,0 0.02,-0.01z" class="st4"/>
                <path id="svg_21" fill="#FFFFFF" d="m2.71,23.825l1.37,0c0.08,0 0.1,-0.07 0.1,-0.07l0.01,-0.04l0.23,0l0,0.6l-0.23,0l-0.01,-0.04c0,0 0,-0.02 -0.02,-0.04c-0.02,-0.02 -0.04,-0.03 -0.08,-0.03l-1.37,0c-0.08,0 -0.1,0.07 -0.1,0.07l-0.01,0.04l-0.23,0l0,-0.6l0.23,0l0.01,0.04c0,0 0,0.02 0.02,0.04c0.01,0.02 0.04,0.03 0.08,0.03zm1.36,0.07l-1.37,0c-0.07,0 -0.11,-0.03 -0.14,-0.06c-0.01,-0.02 -0.02,-0.04 -0.03,-0.05l-0.1,0l0,0.46l0.1,0c0.02,-0.06 0.08,-0.11 0.16,-0.11l1.37,0c0.07,0 0.11,0.03 0.14,0.06c0.01,0.02 0.02,0.04 0.03,0.05l0.1,0l0,-0.46l-0.1,0c-0.01,0.05 -0.06,0.11 -0.16,0.11zm-1.36,0.02l1.37,0c0.1,0 0.16,-0.06 0.18,-0.11l0.06,0l0,0.42l-0.06,0c-0.01,-0.01 -0.01,-0.03 -0.02,-0.04c-0.02,-0.03 -0.07,-0.07 -0.15,-0.07l-1.37,0c-0.1,0 -0.16,0.06 -0.18,0.11l-0.06,0l0,-0.42l0.06,0c0.01,0.01 0.01,0.03 0.02,0.04c0.02,0.03 0.06,0.07 0.15,0.07z" class="st4"/>
                <path id="svg_22" fill="#FFFFFF" d="m4.18,22.335l0.23,0l0,0.55l-0.23,0c0,0 -0.01,-0.03 -0.02,-0.04c-0.02,-0.02 -0.04,-0.03 -0.08,-0.03l-0.72,0l0,0.26l0.72,0c0.03,0 0.06,-0.01 0.08,-0.03c0.01,-0.02 0.02,-0.04 0.02,-0.04l0.23,0l0,0.55l-0.23,0l-0.01,-0.04c0,0 -0.01,-0.02 -0.02,-0.04c-0.02,-0.02 -0.04,-0.03 -0.08,-0.03l-0.73,0c-0.03,0 -0.06,0.01 -0.08,0.03c-0.01,0.02 -0.02,0.03 -0.02,0.04l-0.01,0.04l-0.04,0l-0.18,0l0,-0.95l0.27,-0.15l0.78,0c0.08,0 0.09,-0.07 0.09,-0.07l0.03,-0.05zm0.06,0.07c-0.02,0.06 -0.07,0.11 -0.16,0.11l-0.76,0l-0.22,0.12l0,0.84l0.09,0c0.01,-0.01 0.01,-0.03 0.03,-0.05c0.02,-0.03 0.06,-0.06 0.13,-0.06l0.73,0c0.07,0 0.11,0.03 0.13,0.06c0.01,0.02 0.02,0.04 0.02,0.05l0.1,0l0,-0.41l-0.11,0c0,0 -0.01,0.01 -0.01,0.02c-0.02,0.03 -0.06,0.06 -0.13,0.06l-0.79,0l0,-0.4l0.79,0c0.07,0 0.11,0.03 0.13,0.06c0,0.01 0.01,0.01 0.01,0.02l0.11,0l0,-0.41l-0.09,0l0,-0.01zm0.02,0.02l0.06,0l0,0.37l-0.08,0c0,0 0,-0.01 -0.01,-0.01c-0.02,-0.03 -0.07,-0.07 -0.15,-0.07l-0.79,0c-0.01,0 -0.02,0.01 -0.02,0.02l0,0.4c0,0.01 0.01,0.02 0.02,0.02l0.79,0c0.08,0 0.12,-0.04 0.15,-0.07c0,0 0.01,0 0.01,-0.01l0.08,0l0,0.37l-0.06,0c0,-0.01 -0.01,-0.03 -0.02,-0.04c-0.02,-0.03 -0.07,-0.07 -0.15,-0.07l-0.73,0c-0.08,0 -0.12,0.04 -0.15,0.07c-0.01,0.02 -0.02,0.03 -0.03,0.04l-0.06,0l0,-0.81l0.2,-0.11l0.76,0c0.1,0.01 0.15,-0.05 0.18,-0.1z" class="st4"/>
                <path id="svg_23" fill="#FFFFFF" d="m3.03,20.965l0.23,0l0.01,0.04c0,0 0,0.02 0.02,0.04c0.02,0.02 0.08,0.03 0.08,0.03l1.05,0.25l0,0.48l-1.05,0.25c0,0 -0.06,0.01 -0.08,0.03c-0.01,0.02 -0.02,0.04 -0.02,0.04l-0.01,0.04l-0.04,0l-0.18,0l0,-0.55l0.23,0c0,0 0.01,0.03 0.02,0.04c0.02,0.02 0.04,0.03 0.07,0.03l0.58,-0.13l-0.58,-0.13c-0.03,0 -0.05,0.01 -0.07,0.03c-0.01,0.02 -0.02,0.04 -0.02,0.04l-0.23,0l0,-0.53l-0.01,0zm0.07,0.07l0,0.41l0.11,0c0,0 0.01,-0.01 0.01,-0.02c0.03,-0.04 0.07,-0.06 0.12,-0.06l0.01,0l0.73,0.16l0,0.07l-0.73,0.16l-0.01,0c-0.05,0 -0.1,-0.02 -0.12,-0.06c0,-0.01 -0.01,-0.01 -0.01,-0.02l-0.11,0l0,0.41l0.09,0c0.01,-0.01 0.01,-0.03 0.03,-0.05c0.03,-0.04 0.09,-0.05 0.12,-0.06l0.99,-0.24l0,-0.38l-0.99,-0.24c-0.04,0 -0.1,-0.02 -0.12,-0.06c-0.01,-0.02 -0.02,-0.04 -0.03,-0.05l-0.09,0l0,0.03zm0.11,0.38c0,0.01 -0.01,0.01 0,0l-0.08,0.01l0,-0.37l0.06,0c0.01,0.01 0.01,0.03 0.03,0.04c0.03,0.04 0.09,0.06 0.14,0.06l0.98,0.23l0,0.35l-0.98,0.23c-0.04,0.01 -0.1,0.02 -0.14,0.06c-0.01,0.02 -0.02,0.03 -0.03,0.04l-0.06,0l0,-0.37l0.08,0c0,0 0,0.01 0,0.01c0.04,0.04 0.08,0.07 0.14,0.07l0.01,0c0,0 0,0 0.01,0l0.73,-0.16c0.01,0 0.02,-0.01 0.02,-0.02l0,-0.07c0,-0.01 -0.01,-0.02 -0.02,-0.02l-0.73,-0.16c0,0 0,0 -0.01,0l-0.01,0c-0.06,0.01 -0.11,0.03 -0.14,0.07z" class="st4"/>
                <path id="svg_24" fill="#FFFFFF" d="m3.87,20.385l0.21,0l0,-0.26l-0.1,0l0,-0.36l0.16,0l0.01,0.01l0.26,0.14l0,0.69l-0.27,0.15l-0.84,0l-0.01,-0.01l-0.26,-0.14l0,-0.69l0.27,-0.15l0.29,0l0.01,0.01l0.26,0.14l0,0.47l0.01,0zm0.27,0.07l-0.35,0l0,-0.5l-0.22,-0.12l-0.26,0l-0.22,0.12l0,0.61l0.22,0.12l0.8,0l0.22,-0.12l0,-0.61l-0.22,-0.12l-0.07,0l0,0.23l0.1,0l0,0.39zm-0.35,0.02l0.35,0c0.01,0 0.02,-0.01 0.02,-0.02l0,-0.4c0,-0.01 -0.01,-0.02 -0.02,-0.02l-0.08,0l0,-0.19l0.04,0l0.2,0.11l0,0.59l-0.2,0.11l-0.79,0l-0.2,-0.11l0,-0.58l0.2,-0.11l0.24,0l0.2,0.11l0,0.49c0.02,0.01 0.03,0.02 0.04,0.02zm-0.15,0c0.01,0 0.02,-0.01 0.02,-0.02l0,-0.4c0,-0.01 -0.01,-0.02 -0.02,-0.02l-0.35,0c-0.01,0 -0.02,0.01 -0.02,0.02l0,0.4c0,0.01 0.01,0.02 0.02,0.02l0.35,0zm0,-0.42l0,0.4l-0.35,0l0,-0.4l0.35,0zm-0.28,0.07l0,0.26l0.21,0l0,-0.26l-0.21,0z" class="st4"/>
                <path id="svg_25" fill="#FFFFFF" d="m3.82,18.505l0.31,0l0.27,0.15l0,0.66l-0.27,0.15l-0.14,0l0,-0.36l0.08,0l0,-0.24l-0.19,0l0,0.47l-0.27,0.15l-0.31,0l-0.27,-0.15l0,-0.66l0.27,-0.15l0.14,0l0,0.36l-0.08,0l0,0.23l0.19,0l0,-0.47l0.27,-0.14zm0.02,0.07l-0.22,0.12l0,0.5l-0.33,0l0,-0.37l0.08,0l0,-0.22l-0.05,0l-0.22,0.12l0,0.58l0.22,0.12l0.27,0l0.22,-0.12l0,-0.5l0.33,0l0,0.37l-0.08,0l0,0.22l0.05,0l0.22,-0.12l0,-0.58l-0.22,-0.12l-0.27,0zm-0.2,0.13l0.2,-0.11l0.26,0l0.2,0.11l0,0.55l-0.2,0.11l-0.02,0l0,-0.18l0.06,0c0.01,0 0.02,-0.01 0.02,-0.02l0,-0.37c0,-0.01 0,-0.01 0,-0.01c-0.01,0 -0.01,-0.01 -0.02,-0.01l-0.33,0c-0.01,0 -0.01,0 -0.02,0.01c0,0 0,0.01 0,0.01l0,0.49l-0.2,0.11l-0.26,0l-0.2,-0.11l0,-0.56l0.2,-0.11l0.02,0l0,0.18l-0.06,0c-0.01,0 -0.02,0.01 -0.02,0.02l0,0.37c0,0.01 0.01,0.02 0.02,0.02l0.33,0c0.01,0 0.02,-0.01 0.02,-0.02l0,-0.48z" class="st4"/>
                <path id="svg_26" fill="#FFFFFF" d="m3.36,17.505l0,0.23l0.71,0l0,-0.23l0.34,0l0,0.45l-0.27,0.15l-0.77,0l0,0.14l-0.33,0l0,-0.14l-0.42,0l-0.23,-0.36l0.65,0l0,-0.23l0.32,0l0,-0.01zm-0.26,0.07l0,0.23l-0.6,0l0.14,0.23l0.46,0l0,0.14l0.19,0l0,-0.14l0.83,0l0.22,-0.12l0,-0.34l-0.19,0l0,0.23l-0.85,0l0,-0.23l-0.2,0zm0.02,0.23l0,-0.21l0.15,0l0,0.21c0,0 0,0.01 0.01,0.01c0,0 0.01,0.01 0.01,0.01l0.85,0c0.01,0 0.02,-0.01 0.02,-0.02l0,-0.21l0.15,0l0,0.31l-0.2,0.11l-0.82,0c-0.01,0 -0.02,0.01 -0.02,0.02l0,0.12l-0.15,0l0,-0.12c0,-0.01 -0.01,-0.02 -0.02,-0.02l-0.44,0l-0.12,-0.19l0.56,0c0.01,0 0.02,-0.01 0.02,-0.02z" class="st4"/>
                <path id="svg_27" fill="#FFFFFF" d="m2.51,16.815l0.38,0l0,0.36l-0.38,0l0,-0.36zm0.07,0.07l0,0.23l0.24,0l0,-0.23l-0.24,0zm0.22,0.02l0,0.19l-0.19,0l0,-0.19l0.19,0zm1.38,-0.2l0.23,0l0,0.58l-0.23,0l-0.01,-0.04c0,0 -0.01,-0.02 -0.02,-0.04c-0.02,-0.02 -0.04,-0.03 -0.08,-0.03l-0.73,0c-0.03,0 -0.06,0.01 -0.08,0.03c-0.01,0.02 -0.02,0.04 -0.02,0.04l-0.01,0.04l-0.23,0l0,-0.58l0.23,0l0.01,0.04c0,0 0,0.02 0.02,0.04c0.02,0.02 0.04,0.03 0.08,0.03l0.73,0c0.03,0 0.06,-0.01 0.08,-0.03c0.01,-0.02 0.02,-0.03 0.02,-0.04l0.01,-0.04zm0.06,0.06c0,0.01 -0.01,0.03 -0.02,0.05c-0.02,0.03 -0.06,0.06 -0.13,0.06l-0.73,0c-0.07,0 -0.11,-0.03 -0.13,-0.06c-0.01,-0.02 -0.02,-0.04 -0.03,-0.05l-0.09,0l0,0.44l0.09,0c0.01,-0.01 0.01,-0.03 0.03,-0.05c0.02,-0.03 0.06,-0.06 0.13,-0.06l0.73,0c0.07,0 0.11,0.03 0.13,0.06c0.01,0.02 0.02,0.04 0.02,0.05l0.1,0l0,-0.44l-0.1,0zm-0.01,0.07c0.01,-0.02 0.02,-0.03 0.02,-0.04l0.06,0l0,0.41l-0.06,0c0,-0.01 -0.01,-0.03 -0.02,-0.04c-0.02,-0.03 -0.07,-0.07 -0.15,-0.07l-0.73,0c-0.08,0 -0.12,0.04 -0.15,0.07c-0.01,0.01 -0.02,0.03 -0.03,0.04l-0.06,0l0,-0.4l0.06,0c0.01,0.01 0.01,0.03 0.03,0.04c0.03,0.03 0.07,0.07 0.15,0.07l0.73,0c0.08,-0.01 0.13,-0.05 0.15,-0.08z" class="st4"/>
                <path id="svg_28" fill="#FFFFFF" d="m3.03,15.385l0.23,0l0.01,0.04c0,0 0,0.02 0.02,0.04c0.02,0.02 0.04,0.03 0.08,0.03l1.39,0l0.01,0.01l0.26,0.14l0,0.68l-0.27,0.15l-0.16,0l0,-0.36l0.1,0l0,-0.25l-0.28,0l0,0.47l-0.27,0.15l-0.85,0l-0.27,-0.15l0,-0.95zm0.07,0.07l0,0.84l0.22,0.12l0.8,0l0.22,-0.12l0,-0.5l0.42,0l0,0.39l-0.1,0l0,0.23l0.07,0l0.22,-0.12l0,-0.61l-0.22,-0.12l-1.37,0c-0.07,0 -0.11,-0.03 -0.13,-0.06c-0.01,-0.02 -0.02,-0.04 -0.03,-0.05l-0.1,0zm0.23,0.94l-0.2,-0.11l0,-0.81l0.06,0c0.01,0.01 0.01,0.03 0.03,0.04c0.03,0.03 0.07,0.07 0.15,0.07l1.37,0l0.2,0.11l0,0.58l-0.2,0.11l-0.04,0l0,-0.19l0.08,0c0.01,0 0.02,-0.01 0.02,-0.02l0,-0.39c0,-0.01 -0.01,-0.02 -0.02,-0.02l-0.42,0c-0.01,0 -0.02,0.01 -0.02,0.02l0,0.49l-0.2,0.11l-0.81,0l0,0.01zm0.81,-0.19c0.01,0 0.02,-0.01 0.02,-0.02l0,-0.39c0,-0.01 -0.01,-0.02 -0.02,-0.02l-0.85,0c-0.01,0 -0.02,0.01 -0.02,0.02l0,0.39c0,0.01 0.01,0.02 0.02,0.02l0.85,0zm0,-0.41l0,0.39l-0.85,0l0,-0.39l0.85,0zm-0.78,0.07l0,0.26l0.71,0l0,-0.26l-0.71,0z" class="st4"/>
                <path id="svg_29" fill="#FFFFFF" d="m4.18,14.075l0.23,0l0,0.95l-0.27,0.15l-0.35,0l-0.01,-0.01l-0.26,-0.14l0,-0.47l-0.16,0l0,0.26l0.06,0l0,0.36l-0.12,0l-0.01,-0.01l-0.26,-0.14l0,-0.69l0.27,-0.15l0.78,0c0.08,0 0.09,-0.07 0.09,-0.07l0.01,-0.04zm0.06,0.07c-0.02,0.05 -0.07,0.11 -0.16,0.11l-0.76,0l-0.22,0.12l0,0.61l0.22,0.12l0.04,0l0,-0.23l-0.06,0l0,-0.4l0.3,0l0,0.5l0.22,0.12l0.31,0l0.22,-0.12l0,-0.84l-0.11,0l0,0.01zm0.02,0.02l0.06,0l0,0.81l-0.2,0.11l-0.3,0l-0.2,-0.11l0,-0.49c0,-0.01 -0.01,-0.02 -0.02,-0.02l-0.3,0c0,0 -0.01,0 -0.01,0.01c0,0 -0.01,0.01 -0.01,0.01l0,0.4c0,0.01 0.01,0.02 0.02,0.02l0.04,0l0,0.19l-0.01,0l-0.2,-0.11l0,-0.59l0.2,-0.11l0.76,0c0.09,-0.01 0.14,-0.07 0.17,-0.12zm-0.48,0.29c-0.01,0 -0.02,0.01 -0.02,0.02l0,0.4c0,0.01 0.01,0.02 0.02,0.02l0.36,0c0.01,0 0.02,-0.01 0.02,-0.02l0,-0.4c0,-0.01 -0.01,-0.02 -0.02,-0.02l-0.36,0zm0,0.42l0,-0.4l0.36,0l0,0.4l-0.36,0zm0.29,-0.07l0,-0.26l-0.22,0l0,0.26l0.22,0z" class="st4"/>
                <path id="svg_30" fill="#FFFFFF" d="m3.36,13.125l0,0.23l0.71,0l0,-0.23l0.34,0l0,0.45l-0.27,0.15l-0.77,0l0,0.14l-0.33,0l0,-0.14l-0.42,0l-0.23,-0.36l0.65,0l0,-0.23l0.32,0l0,-0.01zm-0.26,0.07l0,0.23l-0.6,0l0.14,0.23l0.46,0l0,0.14l0.19,0l0,-0.14l0.83,0l0.22,-0.12l0,-0.34l-0.19,0l0,0.23l-0.85,0l0,-0.23l-0.2,0zm0.02,0.23l0,-0.21l0.15,0l0,0.21c0,0 0,0.01 0.01,0.01c0,0 0.01,0.01 0.01,0.01l0.85,0c0.01,0 0.02,-0.01 0.02,-0.02l0,-0.21l0.15,0l0,0.31l-0.2,0.11l-0.82,0c-0.01,0 -0.02,0.01 -0.02,0.02l0,0.12l-0.15,0l0,-0.12c0,-0.01 -0.01,-0.02 -0.02,-0.02l-0.44,0l-0.12,-0.19l0.56,0c0.01,0 0.02,-0.01 0.02,-0.02z" class="st4"/>
                <path id="svg_31" fill="#FFFFFF" d="m2.51,12.435l0.38,0l0,0.36l-0.38,0l0,-0.36zm0.07,0.07l0,0.23l0.24,0l0,-0.23l-0.24,0zm0.22,0.02l0,0.19l-0.19,0l0,-0.19l0.19,0zm1.38,-0.2l0.23,0l0,0.58l-0.23,0l-0.01,-0.04c0,0 -0.01,-0.02 -0.02,-0.04c-0.02,-0.02 -0.04,-0.03 -0.08,-0.03l-0.73,0c-0.03,0 -0.06,0.01 -0.08,0.03c-0.01,0.02 -0.02,0.04 -0.02,0.04l-0.01,0.04l-0.23,0l0,-0.58l0.23,0l0.01,0.04c0,0 0,0.02 0.02,0.04c0.02,0.02 0.04,0.03 0.08,0.03l0.73,0c0.03,0 0.06,-0.01 0.08,-0.03c0.01,-0.02 0.02,-0.03 0.02,-0.04l0.01,-0.04zm0.06,0.06c0,0.01 -0.01,0.03 -0.02,0.05c-0.02,0.03 -0.06,0.06 -0.13,0.06l-0.73,0c-0.07,0 -0.11,-0.03 -0.13,-0.06c-0.01,-0.02 -0.02,-0.04 -0.03,-0.05l-0.09,0l0,0.44l0.09,0c0.01,-0.01 0.01,-0.03 0.03,-0.05c0.02,-0.03 0.06,-0.06 0.13,-0.06l0.73,0c0.07,0 0.11,0.03 0.13,0.06c0.01,0.02 0.02,0.04 0.02,0.05l0.1,0l0,-0.45l-0.1,0l0,0.01zm-0.01,0.07c0.01,-0.02 0.02,-0.03 0.02,-0.04l0.06,0l0,0.41l-0.06,0c0,-0.01 -0.01,-0.03 -0.02,-0.04c-0.02,-0.03 -0.07,-0.07 -0.15,-0.07l-0.73,0c-0.08,0 -0.12,0.04 -0.15,0.07c-0.01,0.01 -0.02,0.03 -0.03,0.04l-0.06,0l0,-0.4l0.06,0c0.01,0.01 0.01,0.03 0.03,0.04c0.03,0.03 0.07,0.07 0.15,0.07l0.73,0c0.08,-0.01 0.13,-0.05 0.15,-0.08z" class="st4"/>
                <path id="svg_32" fill="#FFFFFF" d="m3.3,11.125l0.84,0l0.27,0.15l0,0.69l-0.27,0.15l-0.84,0l-0.27,-0.15l0,-0.7l0.27,-0.14zm0.02,0.06l-0.22,0.12l0,0.61l0.22,0.12l0.8,0l0.22,-0.12l0,-0.61l-0.22,-0.12l-0.8,0zm-0.2,0.14l0.2,-0.11l0.79,0l0.2,0.11l0,0.59l-0.2,0.11l-0.79,0l-0.2,-0.11l0,-0.59zm0.17,0.07c-0.01,0 -0.02,0.01 -0.02,0.02l0,0.4c0,0.01 0.01,0.02 0.02,0.02l0.85,0c0.01,0 0.02,-0.01 0.02,-0.02l0,-0.4c0,-0.01 -0.01,-0.02 -0.02,-0.02l-0.85,0zm0,0.42l0,-0.4l0.85,0l0,0.4l-0.85,0zm0.78,-0.07l0,-0.26l-0.71,0l0,0.26l0.71,0z" class="st4"/>
                <path id="svg_33" fill="#FFFFFF" d="m4.18,9.695l0.23,0l0,0.55l-0.23,0c0,0 -0.01,-0.03 -0.02,-0.04c-0.02,-0.02 -0.04,-0.03 -0.08,-0.03l-0.72,0l0,0.26l0.72,0c0.03,0 0.06,-0.01 0.08,-0.03c0.01,-0.02 0.02,-0.04 0.02,-0.04l0.23,0l0,0.55l-0.23,0l-0.01,-0.04c0,0 -0.01,-0.02 -0.02,-0.04c-0.02,-0.02 -0.04,-0.03 -0.08,-0.03l-0.73,0c-0.03,0 -0.06,0.01 -0.08,0.03c-0.01,0.02 -0.02,0.03 -0.02,0.04l-0.01,0.04l-0.04,0l-0.18,0l0,-0.95l0.27,-0.15l0.78,0c0.08,0 0.09,-0.07 0.09,-0.07l0.03,-0.05zm0.06,0.07c-0.02,0.06 -0.07,0.11 -0.16,0.11l-0.76,0l-0.22,0.12l0,0.84l0.09,0c0.01,-0.01 0.01,-0.03 0.03,-0.05c0.02,-0.03 0.06,-0.06 0.13,-0.06l0.73,0c0.07,0 0.11,0.03 0.13,0.06c0.01,0.02 0.02,0.04 0.02,0.05l0.1,0l0,-0.41l-0.11,0c0,0 -0.01,0.01 -0.01,0.02c-0.02,0.03 -0.06,0.06 -0.13,0.06l-0.79,0l0,-0.4l0.79,0c0.07,0 0.11,0.03 0.13,0.06c0,0.01 0.01,0.01 0.01,0.02l0.11,0l0,-0.42l-0.09,0zm0.02,0.02l0.06,0l0,0.37l-0.08,0c0,0 0,-0.01 -0.01,-0.01c-0.02,-0.03 -0.07,-0.07 -0.15,-0.07l-0.79,0c-0.01,0 -0.02,0.01 -0.02,0.02l0,0.4c0,0.01 0.01,0.02 0.02,0.02l0.79,0c0.08,0 0.12,-0.04 0.15,-0.07c0,0 0.01,0 0.01,-0.01l0.08,0l0,0.37l-0.06,0c0,-0.01 -0.01,-0.03 -0.02,-0.04c-0.02,-0.03 -0.07,-0.07 -0.15,-0.07l-0.73,0c-0.08,0 -0.12,0.04 -0.15,0.07c-0.01,0.02 -0.02,0.03 -0.03,0.04l-0.06,0l0,-0.81l0.2,-0.11l0.76,0c0.1,0.01 0.15,-0.05 0.18,-0.1z" class="st4"/>
                <path id="svg_34" fill="#FFFFFF" d="m2.99,8.095l-0.28,0l0,0.27l1.35,0l0,-0.27l-0.41,0l0,-0.37l0.47,0l0.28,0.15l0,0.7l-0.28,0.15l-1.48,0l-0.28,-0.15l0,-0.7l0.28,-0.15l0.35,0l0,0.37zm-0.35,-0.06l0.28,0l0,-0.23l-0.26,0l-0.22,0.12l0,0.63l0.22,0.12l1.45,0l0.22,-0.12l0,-0.63l-0.22,-0.12l-0.39,0l0,0.23l0.41,0l0,0.4l-1.5,0l0,-0.4l0.01,0zm-0.02,0l0,0.4c0,0.01 0.01,0.02 0.02,0.02l1.5,0c0.01,0 0.02,-0.01 0.02,-0.02l0,-0.4c0,-0.01 -0.01,-0.02 -0.02,-0.02l-0.39,0l0,-0.19l0.36,0l0.21,0.12l0,0.6l-0.21,0.12l-1.43,0l-0.21,-0.12l0,-0.6l0.21,-0.12l0.23,0l0,0.19l-0.26,0c-0.02,0 -0.03,0.01 -0.03,0.02z" class="st4"/>
                <path id="svg_35" fill="#FFFFFF" d="m4.07,6.875l0.34,0l0,0.38l-0.27,0.15l-1.39,0c-0.03,0 -0.06,0.01 -0.07,0.03c-0.01,0.02 -0.02,0.04 -0.02,0.04l-0.01,0.04l-0.23,0l0,-0.58l0.23,0l0.01,0.04c0,0 0,0.02 0.02,0.04c0.02,0.02 0.04,0.03 0.07,0.03l1.33,0l0,-0.17l-0.01,0zm0.07,0.06l0,0.17l-1.4,0c-0.07,0 -0.11,-0.03 -0.13,-0.06c-0.01,-0.02 -0.02,-0.04 -0.03,-0.05l-0.1,0l0,0.45l0.1,0c0,-0.01 0.01,-0.03 0.03,-0.05c0.02,-0.03 0.06,-0.06 0.13,-0.06l1.37,0l0.22,-0.12l0,-0.27l-0.19,0l0,-0.01zm0.03,0.17l0,-0.15l0.15,0l0,0.24l-0.2,0.11l-1.37,0c-0.08,0 -0.12,0.04 -0.15,0.07c-0.01,0.02 -0.02,0.03 -0.02,0.04l-0.06,0l0,-0.41l0.06,0c0.01,0.01 0.01,0.03 0.02,0.04c0.02,0.03 0.07,0.07 0.15,0.07l1.4,0c0.01,0.01 0.02,0 0.02,-0.01z" class="st4"/>
                <path id="svg_36" fill="#FFFFFF" d="m3.03,5.445l0.23,0l0.01,0.04c0,0 0,0.02 0.02,0.04c0.02,0.02 0.04,0.03 0.08,0.03l0.77,0l0.01,0l0.01,0.01l0.26,0.14l0,0.69l-0.27,0.15l-0.78,0c-0.03,0 -0.06,0.01 -0.08,0.03c-0.01,0.02 -0.02,0.04 -0.02,0.04l-0.01,0.04l-0.23,0l0,-0.55l0.23,0c0,0 0.01,0.02 0.02,0.04c0.02,0.02 0.04,0.03 0.08,0.03l0.72,0l0,-0.26l-0.72,0c-0.03,0 -0.06,0.01 -0.08,0.03c-0.01,0.02 -0.02,0.04 -0.02,0.04l-0.23,0l0,-0.54zm0.07,0.07l0,0.41l0.11,0c0,-0.01 0.01,-0.01 0.01,-0.02c0.02,-0.03 0.06,-0.06 0.13,-0.06l0.79,0l0,0.4l-0.79,0c-0.07,0 -0.11,-0.03 -0.13,-0.06c0,0 -0.01,-0.01 -0.01,-0.01l-0.11,0l0,0.41l0.09,0c0.01,-0.01 0.01,-0.03 0.03,-0.05c0.02,-0.03 0.06,-0.06 0.13,-0.06l0.76,0l0.22,-0.12l0,-0.61l-0.22,-0.12l-0.76,0c-0.07,0 -0.11,-0.03 -0.13,-0.06c-0.01,-0.02 -0.02,-0.04 -0.03,-0.05l-0.09,0zm0.11,0.39c0,0 0,0.01 0,0.01l-0.08,0l0,-0.37l0.06,0c0.01,0.01 0.01,0.03 0.03,0.04c0.03,0.03 0.07,0.07 0.15,0.07l0.76,0l0.2,0.11l0,0.59l-0.2,0.11l-0.76,0c-0.08,0 -0.12,0.04 -0.15,0.07c-0.01,0.01 -0.02,0.03 -0.03,0.04l-0.06,0l0,-0.37l0.08,0c0,0 0,0 0,0.01c0.03,0.03 0.07,0.07 0.15,0.07l0.79,0c0.01,0 0.02,-0.01 0.02,-0.02l0,-0.4c0,-0.01 -0.01,-0.02 -0.02,-0.02l-0.79,0c-0.08,-0.01 -0.13,0.02 -0.15,0.06z" class="st4"/>
                <path id="svg_37" fill="#FFFFFF" d="m3.3,4.195l0.84,0l0.01,0l0.26,0.14l0,0.95l-0.23,0l-0.01,-0.04c0,0 -0.01,-0.02 -0.02,-0.04c-0.02,-0.02 -0.04,-0.03 -0.08,-0.03l-1.34,0c-0.03,0 -0.06,0.01 -0.07,0.03c-0.01,0.02 -0.02,0.03 -0.02,0.04l-0.01,0.04l-0.23,0l0,-0.58l0.23,0l0.01,0.04c0,0 0,0.02 0.02,0.04c0.02,0.02 0.04,0.03 0.07,0.03l0.29,0l0,-0.47l0.28,-0.15zm0.02,0.06l-0.22,0.12l0,0.5l-0.36,0c-0.07,0 -0.11,-0.03 -0.13,-0.06c-0.01,-0.02 -0.02,-0.04 -0.03,-0.05l-0.1,0l0,0.44l0.1,0c0,-0.01 0.01,-0.03 0.03,-0.05c0.02,-0.03 0.06,-0.06 0.13,-0.06l1.34,0c0.07,0 0.11,0.03 0.13,0.06c0.01,0.02 0.02,0.04 0.02,0.05l0.1,0l0,-0.84l-0.22,-0.12l-0.79,0l0,0.01zm-0.2,0.13l0.2,-0.11l0.79,0l0.2,0.11l0,0.81l-0.06,0c0,-0.01 -0.01,-0.03 -0.02,-0.04c-0.02,-0.03 -0.07,-0.07 -0.15,-0.07l-1.34,0c-0.08,0 -0.12,0.04 -0.15,0.07c-0.01,0.01 -0.02,0.03 -0.02,0.04l-0.06,0l0,-0.4l0.06,0c0.01,0.01 0.01,0.03 0.02,0.04c0.02,0.03 0.07,0.07 0.15,0.07l0.36,0c0.01,0 0.02,-0.01 0.02,-0.02l0,-0.5zm0.17,0.08c-0.01,0 -0.02,0.01 -0.02,0.02l0,0.4c0,0.01 0.01,0.02 0.02,0.02l0.85,0c0.01,0 0.02,-0.01 0.02,-0.02l0,-0.4c0,-0.01 -0.01,-0.02 -0.02,-0.02l-0.85,0zm0,0.41l0,-0.4l0.85,0l0,0.4l-0.85,0zm0.78,-0.06l0,-0.26l-0.71,0l0,0.26l0.71,0z" class="st4"/>
            </g>
            <g id="svg_38"
                xmlns="http://www.w3.org/2000/svg">
                <path id="svg_39" fill="#FFFFFF" d="m8.85,38.965l0,-0.07c0.09,0 0.17,-0.02 0.26,-0.06c0.09,-0.03 0.16,-0.09 0.23,-0.16c0.07,-0.07 0.12,-0.17 0.16,-0.3c0.04,-0.12 0.06,-0.28 0.06,-0.47c0,-0.12 -0.02,-0.24 -0.07,-0.34c-0.05,-0.1 -0.11,-0.19 -0.18,-0.26c-0.08,-0.07 -0.17,-0.13 -0.27,-0.16c-0.11,-0.04 -0.22,-0.05 -0.34,-0.03c-0.16,0.02 -0.29,0.07 -0.42,0.18c-0.12,0.1 -0.23,0.23 -0.34,0.38c-0.1,0.15 -0.2,0.31 -0.29,0.47c-0.09,0.17 -0.19,0.32 -0.29,0.46c-0.1,0.14 -0.21,0.26 -0.33,0.35c-0.12,0.09 -0.25,0.14 -0.4,0.13c-0.27,0 -0.48,-0.12 -0.62,-0.35c-0.14,-0.23 -0.22,-0.53 -0.22,-0.91c0,-0.13 0.01,-0.25 0.02,-0.36c0.01,-0.11 0.02,-0.2 0.04,-0.28c0.01,-0.08 0.02,-0.14 0.01,-0.18c0,-0.04 -0.02,-0.06 -0.06,-0.06l0,-0.09l0.52,0l0,0.07c-0.06,0 -0.13,0.02 -0.19,0.07c-0.06,0.04 -0.11,0.11 -0.16,0.19c-0.05,0.08 -0.08,0.18 -0.1,0.29c-0.02,0.11 -0.03,0.23 -0.02,0.36c0.01,0.1 0.03,0.21 0.06,0.31c0.03,0.1 0.08,0.19 0.14,0.27c0.06,0.08 0.13,0.14 0.21,0.18c0.09,0.04 0.18,0.06 0.29,0.05c0.14,-0.01 0.27,-0.06 0.37,-0.16c0.11,-0.1 0.21,-0.22 0.3,-0.37c0.1,-0.15 0.19,-0.3 0.29,-0.47c0.09,-0.17 0.2,-0.32 0.31,-0.47c0.11,-0.14 0.24,-0.26 0.38,-0.37c0.14,-0.1 0.31,-0.16 0.49,-0.17c0.13,0 0.26,0.02 0.37,0.08c0.11,0.06 0.21,0.14 0.3,0.26c0.08,0.11 0.15,0.25 0.2,0.4c0.05,0.16 0.08,0.33 0.08,0.51c0,0.15 -0.01,0.29 -0.03,0.42c-0.02,0.12 -0.04,0.23 -0.06,0.31c-0.02,0.09 -0.02,0.15 -0.02,0.2c0.01,0.04 0.04,0.06 0.1,0.06l0,0.09l-0.78,0z" class="st4"/>
                <path id="svg_40" fill="#FFFFFF" d="m9.61,35.185l0,0.36l-0.28,0l0,-0.36l0.28,0z" class="st4"/>
                <path id="svg_41" fill="#FFFFFF" d="m9.47,31.905c-0.01,0.04 0,0.1 0.02,0.18c0.02,0.08 0.05,0.19 0.08,0.31c0.03,0.13 0.05,0.27 0.05,0.44c0,0.36 -0.08,0.64 -0.24,0.86c-0.16,0.22 -0.37,0.32 -0.63,0.32l-2.11,0c-0.26,0 -0.47,-0.11 -0.62,-0.32c-0.16,-0.22 -0.24,-0.5 -0.24,-0.86c0,-0.19 0.01,-0.35 0.04,-0.48c0.03,-0.13 0.05,-0.24 0.07,-0.32c0.02,-0.08 0.02,-0.14 0.02,-0.18c-0.01,-0.04 -0.05,-0.06 -0.11,-0.06l0,-0.08l0.92,0l0,0.08c-0.13,0 -0.25,0.02 -0.36,0.04c-0.11,0.02 -0.2,0.07 -0.27,0.13c-0.08,0.07 -0.13,0.17 -0.18,0.3c-0.04,0.13 -0.06,0.31 -0.06,0.53c0,0.22 0.05,0.4 0.14,0.53c0.1,0.13 0.22,0.2 0.38,0.2l2.67,0c0.08,0 0.15,-0.02 0.22,-0.05c0.07,-0.03 0.12,-0.08 0.17,-0.15c0.05,-0.06 0.08,-0.14 0.11,-0.23c0.03,-0.09 0.03,-0.19 0.03,-0.3c-0.01,-0.22 -0.04,-0.39 -0.1,-0.52c-0.05,-0.13 -0.13,-0.23 -0.23,-0.3c-0.1,-0.07 -0.22,-0.12 -0.36,-0.14c-0.14,-0.02 -0.3,-0.03 -0.49,-0.03l0,-0.08l1.19,0l0,0.12c-0.06,0 -0.1,0.02 -0.11,0.06z" class="st4"/>
                <path id="svg_42" fill="#FFFFFF" d="m9.61,30.265l0,0.36l-0.28,0l0,-0.36l0.28,0z" class="st4"/>
                <path id="svg_43" fill="#FFFFFF" d="m5.79,29.155l0,-1.02l0.05,0c0,0.1 0.01,0.17 0.03,0.21c0.02,0.04 0.05,0.06 0.08,0.06l1.78,0l0,-1.54l-1.78,0c-0.03,0 -0.06,0.02 -0.08,0.06c-0.02,0.04 -0.03,0.12 -0.03,0.24l-0.05,0l0,-1.02l0.05,0c0,0.1 0.01,0.17 0.03,0.21c0.02,0.04 0.05,0.06 0.08,0.06l3.5,0c0.03,0 0.06,-0.02 0.08,-0.06c0.02,-0.04 0.03,-0.11 0.03,-0.21l0.05,0l0,1.02l-0.05,0c0,-0.12 -0.01,-0.2 -0.03,-0.24c-0.02,-0.04 -0.05,-0.06 -0.08,-0.06l-1.66,0l0,1.53l1.66,0c0.03,0 0.06,-0.02 0.08,-0.06c0.02,-0.04 0.03,-0.11 0.03,-0.21l0.05,0l0,1.02l-0.05,0c0,-0.11 -0.01,-0.19 -0.03,-0.23c-0.02,-0.04 -0.05,-0.06 -0.08,-0.06l-3.5,0c-0.03,0 -0.06,0.02 -0.08,0.06c-0.02,0.04 -0.03,0.11 -0.03,0.23l-0.05,0l0,0.01z" class="st4"/>
                <path id="svg_44" fill="#FFFFFF" d="m9.61,24.665l0,0.36l-0.28,0l0,-0.36l0.28,0z" class="st4"/>
                <path id="svg_45" fill="#FFFFFF" d="m9.56,23.815c0,-0.13 -0.01,-0.21 -0.02,-0.25c-0.01,-0.04 -0.03,-0.06 -0.06,-0.07l-3.55,-0.96c-0.03,-0.01 -0.05,0 -0.06,0.04c-0.01,0.03 -0.02,0.12 -0.02,0.27l-0.05,0l0,-0.88l3.69,-1.02c0.05,-0.02 0.08,-0.08 0.08,-0.19l0.05,0l0,0.88l-0.05,0c0,-0.08 -0.01,-0.14 -0.02,-0.16c-0.01,-0.02 -0.03,-0.03 -0.06,-0.02l-0.83,0.22l0,1.39l0.83,0.22c0.01,0 0.02,0 0.03,0c0.01,0 0.02,-0.02 0.03,-0.04c0.01,-0.02 0.01,-0.06 0.02,-0.1c0,-0.04 0.01,-0.11 0.01,-0.19l0.05,0l0,0.88l-0.07,0l0,-0.02zm-0.97,-0.78l0,-1.36l-2.46,0.7l2.46,0.66z" class="st4"/>
                <path id="svg_46" fill="#FFFFFF" d="m9.61,19.455l0,0.36l-0.28,0l0,-0.36l0.28,0z" class="st4"/>
                <path id="svg_47" fill="#FFFFFF" d="m5.79,18.345l0,-1.04l0.05,0c0,0.1 0.01,0.17 0.03,0.21c0.02,0.04 0.05,0.06 0.08,0.06l3.5,0c0.07,0 0.11,-0.05 0.11,-0.15l0,-0.76c0,-0.04 -0.01,-0.08 -0.02,-0.12c-0.01,-0.04 -0.05,-0.08 -0.09,-0.11c-0.05,-0.03 -0.12,-0.06 -0.21,-0.08c-0.09,-0.02 -0.22,-0.03 -0.38,-0.03l0,-0.07l0.76,0l0,2.09l-0.05,0c0,-0.12 -0.01,-0.2 -0.03,-0.24c-0.02,-0.04 -0.05,-0.06 -0.08,-0.06l-3.5,0c-0.03,0 -0.06,0.02 -0.08,0.06c-0.02,0.04 -0.03,0.12 -0.03,0.24l-0.06,0z" class="st4"/>
                <path id="svg_48" fill="#FFFFFF" d="m9.61,14.775l0,0.36l-0.28,0l0,-0.36l0.28,0z" class="st4"/>
                <path id="svg_49" fill="#FFFFFF" d="m9.18,11.325l0.43,0l0,2.34l-0.05,0c0,-0.14 -0.02,-0.24 -0.05,-0.3c-0.03,-0.06 -0.08,-0.09 -0.14,-0.09l-3.33,0c-0.06,0 -0.1,0.03 -0.14,0.09c-0.03,0.06 -0.05,0.16 -0.05,0.3l-0.05,0l0,-2.34l0.52,0l0,0.07c-0.15,0 -0.27,0.04 -0.35,0.11s-0.12,0.15 -0.12,0.23l0,1.05l1.7,0l0,-0.72c0,-0.04 -0.01,-0.09 -0.04,-0.14c-0.03,-0.05 -0.07,-0.08 -0.15,-0.08l0,-0.07l0.43,0l0,0.07c-0.08,0 -0.13,0.03 -0.15,0.08c-0.03,0.05 -0.04,0.1 -0.04,0.14l0,0.72l1.96,0l0,-1.05c0,-0.08 -0.03,-0.15 -0.08,-0.23c-0.05,-0.07 -0.15,-0.11 -0.3,-0.11l0,-0.07z" class="st4"/>
            </g>
        </g>
    </g>
</svg>